PathFileType	4	(X/Y/Z)	Kaydara																																																																																																																									
DataRate	CameraRate	NumFrames	NumMarkers	Units	OrigDataRate	OrigDataStartFrame	OrigNumFrames																																																																																																																					
30	30	8	41	mm	30	213	373																																																																																																																					
Frame#	Time	NABA_LFHD			NABA_RFHD			NABA_LBHD			NABA_RBHD			NABA_LFTShould			NABA_RFTShould			NABA_LRRShould			NABA_RRRShould			NABA_T10			NABA_STRN			NABA_TRUN			NABA_LSHO			NABA_LUPA			NABA_LELB			NABA_LFRM			NABA_LWRA			NABA_LWRB			NABA_LFIN			NABA_RSHO			NABA_RUPA			NABA_RELB			NABA_RFRM			NABA_RWRA			NABA_RWRB			NABA_RFIN			NABA_LFWT			NABA_RFWT			NABA_LBWT			NABA_RBWT			NABA_LTHI			NABA_LKNE			NABA_LSHN			NABA_LANK			NABA_LHEE			NABA_LTOE			NABA_RTHI			NABA_RKNE			NABA_RSHN			NABA_RANK			NABA_RHEE			NABA_RTOE		
		X1	Y1	Z1	X2	Y2	Z2	X3	Y3	Z3	X4	Y4	Z4	X5	Y5	Z5	X6	Y6	Z6	X7	Y7	Z7	X8	Y8	Z8	X9	Y9	Z9	X10	Y10	Z10	X11	Y11	Z11	X12	Y12	Z12	X13	Y13	Z13	X14	Y14	Z14	X15	Y15	Z15	X16	Y16	Z16	X17	Y17	Z17	X18	Y18	Z18	X19	Y19	Z19	X20	Y20	Z20	X21	Y21	Z21	X22	Y22	Z22	X23	Y23	Z23	X24	Y24	Z24	X25	Y25	Z25	X26	Y26	Z26	X27	Y27	Z27	X28	Y28	Z28	X29	Y29	Z29	X30	Y30	Z30	X31	Y31	Z31	X32	Y32	Z32	X33	Y33	Z33	X34	Y34	Z34	X35	Y35	Z35	X36	Y36	Z36	X37	Y37	Z37	X38	Y38	Z38	X39	Y39	Z39	X40	Y40	Z40	X41	Y41	Z41
																																																																																																																												
140	7.063	164.9268	1425.37537	-542.57813	-4.0688	1390.6189	-546.83983	177.23169	1511.88004	-634.03427	-38.34424	1460.44754	-612.80926	151.57882	1295.57434	-724.70894	24.32691	1284.86053	-724.45755	151.25616	1372.70981	-827.64671	6.18075	1360.79758	-819.53583	91.13667	1219.19907	-929.58015	93.46353	1231.4151	-683.83286	97.93665	1127.65945	-650.79842	244.44727	1331.73325	-765.35492	311.70055	1109.77707	-808.55919	316.55775	1007.26822	-788.37097	308.56068	928.25386	-811.88416	249.25138	780.48759	-737.19002	321.3958	779.2997	-739.85306	301.13194	722.28271	-697.01317	-62.82275	1316.04156	-754.71298	-120.37929	1123.50616	-841.54366	-140.63778	988.09151	-804.29283	-142.58366	893.48763	-804.4989	-69.94644	763.75214	-741.66908	-143.35937	751.98708	-738.89709	-126.33904	712.67181	-712.0121	221.9026	926.36055	-736.87424	-42.40553	923.36136	-737.83302	173.96845	982.85233	-910.60745	5.29376	1001.9976	-912.10968	236.97468	617.9216	-817.57568	235.57308	486.68888	-725.45868	192.72234	303.77296	-652.68333	228.09443	141.05866	-680.74722	172.94703	79.35285	-720.79506	213.46878	80.71912	-535.12375	-32.17046	648.63678	-902.76459	-16.96732	474.90494	-804.76303	7.43606	303.64655	-863.02788	6.59549	137.05795	-978.21335	52.09538	109.49876	-1060.52956	44.94747	68.81907	-887.60849
141	7.097	169.22787	1425.22415	-528.6832	0.13766	1390.69641	-534.33102	182.36589	1511.58859	-620.05188	-33.44674	1460.56534	-600.71484	157.08847	1294.66705	-710.77034	29.72152	1284.76761	-711.85753	158.18251	1371.85974	-813.70071	12.70019	1360.69305	-807.11952	98.04211	1218.72238	-915.99602	98.31227	1230.55855	-670.53993	101.86816	1126.91055	-636.97613	250.557	1330.31647	-750.13329	317.7186	1108.27965	-793.51959	321.81892	1005.61996	-773.77144	313.78624	926.85684	-797.82173	253.26668	778.94707	-724.66331	325.51304	777.46452	-726.68701	304.3136	720.01953	-684.52423	-56.65586	1315.63049	-743.13499	-114.33029	1123.01651	-830.63889	-135.63244	987.83058	-793.34366	-138.49731	893.54424	-793.89671	-67.84444	762.83592	-730.92628	-141.20243	751.74973	-728.87787	-125.07055	712.39792	-701.82442	225.65371	925.46188	-722.54829	-38.15137	922.50351	-726.15875	180.72895	983.33939	-896.30234	10.78918	1001.84937	-899.65454	239.98388	618.41908	-807.88773	238.20076	485.69557	-718.25089	194.24875	302.82644	-646.21536	229.07307	140.41738	-672.93221	173.62492	80.33266	-715.73563	213.96181	71.70233	-527.29931	-28.15435	648.9994	-892.5045	-14.76123	474.33281	-795.88943	8.4724	303.56936	-856.9873	6.39969	139.5002	-975.87044	51.41898	113.32211	-1058.7458	44.25983	68.93383	-886.74438
142	7.13	173.86698	1425.32089	-513.57826	4.70786	1391.43372	-520.37239	188.02153	1511.61133	-604.83604	-28.04576	1461.43616	-587.0055	162.69003	1294.5462	-696.16776	35.39932	1285.06622	-698.23242	164.49835	1372.25922	-798.57803	18.97302	1361.65771	-793.24936	104.51114	1219.78165	-901.82396	103.34291	1230.52757	-656.35887	106.28391	1126.74377	-623.06194	256.15332	1330.25055	-734.35074	323.48209	1108.38013	-777.19894	327.14169	1005.65102	-757.58087	319.65658	927.11746	-782.05917	257.64771	778.8237	-710.92354	330.28374	777.33109	-711.69159	308.27585	719.35181	-670.57205	-50.82503	1316.4772	-729.90074	-107.90919	1123.94104	-818.55392	-129.85379	989.03183	-781.28967	-133.49974	894.93744	-782.16339	-64.90164	763.44193	-718.64731	-138.41749	752.99545	-717.6622	-122.98708	713.45505	-690.46486	230.72617	926.48727	-709.23912	-32.9701	922.76924	-713.65936	187.3988	985.34302	-882.25052	15.91121	1003.29056	-886.51726	245.01978	620.01995	-794.89906	242.34766	486.50909	-705.74593	196.50606	301.89615	-638.1488	230.17704	139.90152	-669.3557	174.74676	81.49974	-712.92015	212.41821	67.4116	-525.70259	-23.98431	650.01572	-881.07788	-11.69246	474.70253	-785.12436	9.5093	304.45721	-849.79179	5.78951	143.30688	-973.0249	50.65215	118.56006	-1055.90797	43.37583	69.15502	-885.43861
143	7.163	179.1795	1425.26459	-497.89356	9.79403	1392.24411	-505.52223	193.97865	1511.75262	-588.84094	-22.48195	1462.5972	-571.98372	167.87008	1295.38879	-681.45119	41.02549	1286.21597	-684.01726	170.54691	1373.47351	-783.12447	24.97687	1363.28934	-778.35541	110.64357	1221.66214	-887.20154	108.51285	1231.62994	-641.92322	111.2725	1127.75063	-608.94417	261.7235	1331.37527	-718.6956	329.0884	1109.58641	-760.41809	332.50542	1007.07893	-740.867	325.68394	928.55904	-765.74738	263.94915	778.77823	-697.91336	335.48374	778.70949	-695.47523	312.86674	720.59036	-654.95491	-45.1884	1318.29544	-715.50148	-101.5872	1126.27754	-805.04333	-124.02347	991.3414	-768.63083	-127.8437	897.26349	-769.81895	-61.01491	765.2919	-705.23514	-134.46309	755.21889	-705.63995	-119.83686	715.5706	-678.1263	236.60553	928.13255	-695.48187	-27.0343	923.69148	-701.0183	193.02113	987.27295	-868.67516	21.94584	1005.14702	-873.23586	250.79706	621.65321	-782.66983	246.53605	487.35569	-694.79813	198.68891	301.1113	-631.02215	231.20378	139.60593	-664.94347	175.78079	82.62898	-711.1158	210.51649	63.93263	-523.03341	-20.12354	651.50093	-869.14551	-9.28567	475.77419	-773.16399	9.95189	306.0615	-841.64787	4.65872	148.1961	-969.07913	49.17802	125.24487	-1052.55104	42.04375	69.39923	-883.73085
144	7.197	185.0313	1425.04547	-482.23282	15.18783	1392.70111	-490.21515	200.03992	1511.87286	-572.69398	-16.59902	1463.56308	-556.32931	173.34764	1296.61942	-666.52901	46.36378	1287.36725	-669.34181	176.32109	1374.84619	-767.68814	30.91102	1364.76151	-763.24631	117.00535	1223.37723	-872.28821	114.03899	1232.95364	-627.26807	116.71177	1129.15009	-594.37729	267.31096	1332.82013	-703.26233	335.18448	1111.06903	-744.20746	338.26977	1008.62022	-724.39217	331.85295	930.06348	-749.3161	269.3853	780.20309	-682.47574	340.83076	780.34386	-678.64449	317.29494	722.07253	-638.42999	-39.44756	1319.99374	-700.58746	-95.92858	1128.66768	-790.27618	-118.61374	993.49663	-755.06233	-122.29532	899.22493	-756.31996	-56.08956	767.53067	-690.41756	-129.47774	757.30408	-691.84334	-115.11884	717.6889	-664.03549	242.30209	929.47845	-680.13161	-21.38352	925.02586	-688.37845	198.34188	988.84155	-854.71985	29.59089	1006.72325	-859.89433	254.56394	622.77637	-771.21033	250.04025	486.93439	-686.25977	200.81497	300.0515	-625.32124	230.52155	138.9887	-662.57912	174.70142	83.33391	-709.65408	206.85871	62.1814	-520.98392	-15.38601	653.35495	-856.89568	-8.2963	477.07611	-761.06468	9.17536	307.36914	-833.20908	3.05057	153.57881	-965.06073	47.23579	132.59329	-1048.52928	40.28682	69.5316	-881.85043
145	7.23	190.70984	1424.72946	-466.54945	20.85669	1392.88452	-474.74571	206.04116	1512.02789	-556.55933	-10.78927	1464.21921	-540.5545	178.92647	1297.41989	-651.45782	52.14704	1288.15353	-654.86885	182.50111	1375.94711	-752.21603	37.15532	1365.81818	-748.42834	123.89864	1224.63051	-857.10938	119.56726	1233.93639	-612.54078	122.19175	1130.18936	-579.44141	273.34158	1333.9917	-687.62924	341.6544	1112.28783	-728.35243	344.55261	1009.65195	-708.44765	338.05351	930.95657	-733.09769	274.60831	781.64955	-666.02127	346.03081	781.50009	-661.76323	321.88156	723.2811	-621.71772	-33.34747	1321.02768	-686.16943	-90.72857	1130.02625	-775.64262	-113.56419	994.75067	-740.20554	-117.2395	900.36224	-740.95062	-50.21191	769.09409	-674.85474	-123.59201	758.69255	-675.77782	-108.93592	719.26559	-647.85416	247.9215	930.32089	-664.11606	-15.73989	926.3588	-675.27107	204.86452	990.59837	-839.44992	37.42461	1007.92252	-846.10168	257.44452	623.74847	-760.36301	253.05986	486.76296	-678.3876	202.28237	299.12029	-620.00572	230.07744	138.64237	-661.0849	173.71861	84.00602	-708.71017	205.22251	61.21677	-519.37916	-10.14112	654.88808	-843.74321	-7.59723	478.17772	-747.84195	8.52483	309.54075	-823.8018	1.59987	159.67949	-960.20523	45.96969	140.62314	-1043.68103	38.51264	69.69151	-879.63875
146	7.263	196.38052	1424.85687	-450.75684	26.45952	1393.12927	-459.454	211.91582	1512.35779	-540.3809	-4.97618	1464.68964	-525.01564	184.68987	1297.91672	-635.96916	58.13893	1288.52478	-640.45746	189.03744	1376.78833	-736.24702	43.71955	1366.63239	-733.56506	131.04786	1225.7653	-841.9117	125.07035	1234.2437	-597.57122	127.5026	1130.52711	-564.44027	279.46741	1334.69177	-671.2236	348.14827	1113.16589	-712.55974	351.07353	1010.35439	-692.58583	344.22222	931.46477	-716.80855	278.95332	783.53302	-648.1398	350.94566	782.34978	-644.47708	325.90431	724.39163	-604.23828	-26.95821	1321.5593	-671.9783	-84.89758	1130.54214	-760.95924	-108.14937	995.34325	-724.56841	-111.79773	900.83244	-724.50386	-43.6944	770.39162	-658.14018	-117.08385	759.84047	-657.8759	-101.92592	720.64301	-629.9469	253.45167	930.97946	-648.51997	-9.61224	927.53128	-662.1022	213.20124	991.84631	-823.29422	44.19216	1009.07646	-832.1032	262.45775	625.08224	-748.12706	256.36332	486.82335	-667.97195	203.22071	298.08531	-613.92235	230.47659	138.39396	-657.88719	174.08344	84.87393	-707.76672	204.40758	60.81852	-518.64353	-5.67728	655.811	-828.83827	-5.77097	478.9978	-731.93764	8.05513	312.36101	-812.92221	0.78259	166.82266	-954.23615	45.7249	150.06259	-1037.58919	37.00319	69.71132	-877.09641
147	7.297	201.79548	1425.01785	-435.00267	31.91852	1393.26431	-444.21326	217.72381	1512.6442	-524.40536	0.7501	1464.92554	-509.89414	190.37552	1298.05008	-620.56847	64.33447	1288.68912	-626.1507	195.74867	1377.34451	-720.2491	50.53126	1367.31354	-718.83224	138.12785	1226.74698	-826.88606	130.68297	1234.32823	-582.66415	132.74682	1130.46959	-549.85188	285.59214	1335.11307	-654.66682	354.56341	1113.77419	-695.95108	357.36423	1010.92575	-676.1042	350.34458	931.68816	-700.12337	284.04552	784.18678	-631.66759	355.52193	783.02681	-626.75396	329.80743	725.53169	-586.29684	-20.38117	1322.10342	-657.89673	-78.48563	1130.71365	-746.43341	-102.00815	995.89447	-709.19777	-105.45486	901.13205	-707.966	-36.79067	771.59576	-640.41977	-110.11374	760.97153	-639.58179	-94.85682	722.2393	-611.22013	258.87268	931.69273	-633.70945	-4.31945	928.84987	-647.83966	221.5523	992.61589	-807.16949	50.2386	1009.72359	-818.2814	268.19317	626.03065	-735.15244	259.78514	486.84368	-656.6246	204.40584	296.8992	-607.86259	231.15038	138.30894	-654.67651	174.71024	85.95307	-706.82716	204.16416	60.42298	-518.0183	-2.353	655.65857	-811.94717	-3.02642	479.55376	-712.85141	8.41191	314.95411	-799.75334	0.55629	174.7788	-946.38779	46.25128	160.903	-1029.64233	35.99816	69.44204	-874.19098
